<svg version="1.2" xmlns="http://www.w3.org/2000/svg" viewBox="0 0 700 700" width="700" height="700">
	<title>noun-vertical-arrows-588006-svg</title>
	<style>
		.s0 { fill:  rgb(100 21 255 ); } 
	</style>
	<g id="Layer">
		<path id="Layer" class="s0" d="m544.1 185.5l-101.5 171.9c-4.2 7.5-14.9 7.5-19.2 0l-100.2-171.9c-4.3-7.4 1.1-16.6 9.6-16.6h72.4v-138.9c0-15.3 12.5-27.8 27.8-27.8 15.3 0 27.8 12.5 27.8 27.8v138.9h73.7c8.6 0 13.9 9.2 9.6 16.6z"/>
		<path id="Layer" class="s0" d="m376.8 374.5c4.3 7.4-1.1 16.6-9.6 16.6h-72.4v138.9c0 15.3-12.5 27.8-27.8 27.8-15.3 0-27.8-12.5-27.8-27.8v-138.9h-73.7c-8.5 0-13.9-9.2-9.6-16.6l101.5-171.9c4.2-7.5 14.9-7.5 19.2 0z"/>
	</g>
</svg>