<svg version="1.2" xmlns="http://www.w3.org/2000/svg" viewBox="0 0 700 700" width="700" height="700">
	<title>noun-bolt-1041362-svg</title>
	<style>
		.s0 { fill:  rgb(100 21 255 ); } 
	</style>
	<g id="Layer">
		<path id="Layer" fill-rule="evenodd" class="s0" d="m401.7 33.6c3.3 3.9 4.8 9.1 3.8 14.1l-34.4 187.5 114.9-27.7c4.4-1 8.9-0.3 12.7 2 3.8 2.4 6.6 6.1 7.6 10.5 1 4.3 0.3 8.9-2.1 12.7l-179.1 291.3c-2.8 4.4-7.5 7.3-12.7 7.8-5.3 0.5-10.4-1.5-14-5.4-3.5-3.8-5-9.2-4.1-14.3l34.5-187.5-115 27.6c-4.3 1.1-8.9 0.4-12.7-2-3.8-2.3-6.5-6.1-7.5-10.4-1.1-4.4-0.3-9 2.1-12.8l179.1-291.2c2.9-4.7 7.9-7.6 13.4-7.9 5.1-0.2 10.1 1.9 13.5 5.7zm-45.3 96.4q0 0 0 0zm0 0c0 0-110.7 180.1-110.7 180.1l100.4-24.2c5.5-1.3 11.3 0.3 15.4 4.2 4.1 4 5.9 9.7 4.9 15.2l-22.9 124.5 110.7-180.1-100.4 24.1c-5.5 1.3-11.3-0.3-15.4-4.2-4.1-3.9-5.9-9.6-4.9-15.2z"/>
	</g>
</svg>