<svg version="1.2" xmlns="http://www.w3.org/2000/svg" viewBox="0 0 700 700" width="700" height="700">
	<title>noun-controls-2897495-svg</title>
	<style>
		.s0 { fill:  rgb(100 21 255 );} 
	</style>
	<g id="Layer">
		<path id="Layer" fill-rule="evenodd" class="s0" d="m415.6 72v-24.2c0-13.5 11.5-25 25-25h162c14.5 0 25.1 11.5 25.1 25v24.2h47.2c13.5 0 25.1 10.6 25.1 25 0 13.5-11.6 25.1-25.1 25.1h-47.2v24.1c0 13.5-10.6 25.1-25.1 25.1h-162c-13.5 0-25-11.6-25-25.1v-24.1h-390.5c-13.5 0-25.1-11.6-25.1-25.1 0-14.4 11.6-25 25.1-25z"/>
		<path id="Layer" fill-rule="evenodd" class="s0" d="m456.1 309.1v24.1c0 14.5-11.6 25.1-25.1 25.1h-162c-14.5 0-25.1-10.6-25.1-25.1v-24.1h-218.8c-13.5 0-25.1-10.6-25.1-25 0-13.5 11.6-24.1 25.1-24.1h218.8v-24.1c0-14.5 10.6-25.1 25.1-25.1h162c13.5 0 25.1 10.6 25.1 25.1v24.1h218.8c13.5 0 25.1 10.6 25.1 24.1 0 14.4-11.6 25-25.1 25z"/>
		<path id="Layer" fill-rule="evenodd" class="s0" d="m284.4 497.2v24.1c0 13.5-11.5 25-25 25h-163c-13.5 0-25.1-11.5-25.1-25v-24.1h-46.2c-13.5 0-25.1-11.6-25.1-25.1 0-13.5 11.6-25.1 25.1-25.1h46.2v-24.1c0-13.5 11.6-25.1 25.1-25.1h163c13.5 0 25 11.6 25 25.1v24.1h390.5c13.5 0 25.1 11.6 25.1 25.1 0 13.5-11.6 25.1-25.1 25.1z"/>
	</g>
</svg>