<svg version="1.2" xmlns="http://www.w3.org/2000/svg" viewBox="0 0 700 700" width="700" height="700">
	<title>noun-customer-service-844292-svg</title>
	<style>
		.s0 {  fill: rgb(100 21 255 ); } 
	</style>
	<g id="Layer">
		<path id="Layer" class="s0" d="m440.4 319.1c67.2 9.4 118.9 67 118.9 136.8 0 76.3-61.9 76.1-138.2 76.1h-142.2c-76.3 0-138.1 0.2-138.1-76.1 0-69.8 51.7-127.4 118.8-136.8 0.3 0 0.5 0 0.8-0.1q2.8-0.3 5.8-0.6c0 0.2 0 0.4 0 0.6 0.1 0.5 0.2 1.1 0.2 1.7q0.6 4.8 2.9 9.4c10.1 25.5 43 73.9 62.3 101.4l4-57.1c-5.7-2.9-10.5-7.7-13.6-13.2-2.3-4-3.7-8.4-3.7-12.8 0 0 14.5 6.3 29.2 6.3q1.3 0.1 2.5 0 1.3 0.1 2.5 0c14.8 0 29.2-6.3 29.2-6.3 0 4.4-1.4 8.8-3.6 12.8-3.2 5.5-8 10.3-13.7 13.2l4 57.1c19.4-27.5 52.2-75.9 62.4-101.4 1.5-3.1 2.4-6.2 2.8-9.4 0-0.6 0.1-1.2 0.2-1.7 0-0.2 0-0.4 0-0.6q3 0.3 5.8 0.6c0.3 0.1 0.5 0.1 0.8 0.1z"/>
		<path id="Layer" fill-rule="evenodd" class="s0" d="m215.2 214.1v-24.4c0-14.2 10.1-26.2 24-29.9v-28c0-57.2 49.6-103.8 110.5-103.8 60.9 0 110.4 46.6 110.4 103.8v27.8c14.2 3.5 24.7 15.6 24.7 30.1v24.4c0 14.4-10.5 26.6-24.7 30.1-1.8 0.4-3.8 0.7-5.8 0.8-4.1 5.4-9.5 10.3-15.7 14.7-18.2 43.7-51 73-88.6 73-41.6 0-77.5-35.9-94-87.6-0.5 0-1 0.1-1.5 0.1h-6.2c-3.2 0-6.2-0.4-9.1-1.2-13.9-3.7-24-15.7-24-29.9zm48.1-94.3c18.7-29.3 50.6-48.7 86.7-48.7 35.6 0 67 18.8 85.8 47.4-6.7-38.9-42.7-68.8-86.1-68.8-43.9 0-80.2 30.5-86.4 70.1zm-1 99.5c10.7 56.1 45.8 97.4 87.7 97.4 27.6 0 52.2-18 68.9-46.2-13.1 5.5-28.3 9.3-44.9 10.6-2.4 4.6-7.2 7.7-12.8 7.7h-19.1c-8 0-14.5-6.4-14.5-14.4 0-7.9 6.5-14.4 14.5-14.4h19.1c5.1 0 9.6 2.6 12.1 6.6 22.5-1.9 42.4-8.8 56.4-18.5 3.1-8 5.5-16.5 7.4-25.5v-20.2c-3.4 1.2-7.2 3-11.3 5.9 0 0 10.4-61.3-11.4-69.8 0 0-30.1 14.5-64.4 15.5-34.3-1-64.4-15.5-64.4-15.5-21.8 8.5-11.5 69.8-11.5 69.8-4.3-3.1-8.3-4.9-11.8-6z"/>
	</g>
</svg>