<?xml version="1.0" encoding="UTF-8"?>
<svg width="700pt" height="700pt" version="1.1" viewBox="0 0 700 700" xmlns="http://www.w3.org/2000/svg">
 <path d="m350 513.33c61.883 0 121.23-24.582 164.99-68.34 43.758-43.758 68.34-103.11 68.34-164.99s-24.582-121.23-68.34-164.99c-43.758-43.758-103.11-68.34-164.99-68.34s-121.23 24.582-164.99 68.34c-43.758 43.758-68.34 103.11-68.34 164.99 0.097656 61.855 24.711 121.14 68.449 164.88 43.738 43.738 103.03 68.352 164.88 68.449zm-83.766-275.57c5.0352-3.5859 11.273-5.0547 17.379-4.0938 6.1055 0.95703 11.594 4.2695 15.285 9.2266l37.102 51.102c1.6641 3.5742 4.6328 6.3711 8.2969 7.8281s7.7422 1.457 11.406 0 6.6328-4.2539 8.2969-7.8281l37.102-51.102c3.6484-5.0117 9.1406-8.3672 15.27-9.332 6.125-0.96094 12.383 0.55078 17.395 4.1992 5.0117 3.6523 8.3711 9.1445 9.332 15.27 0.96484 6.1289-0.54688 12.387-4.1992 17.398l-37.102 51.102h0.003906c-11.68 17.27-30.957 27.867-51.801 28.465-20.844-0.59766-40.121-11.195-51.801-28.465l-37.098-51.102c-3.5859-5.0352-5.0586-11.273-4.0977-17.379 0.96094-6.1094 4.2734-11.594 9.2305-15.289z"/>
</svg>
