<svg version="1.2" xmlns="http://www.w3.org/2000/svg" viewBox="0 0 700 700" width="700" height="700">
	<title>noun-user-love-4154904-svg</title>
	<style>
		.s0 { fill:  rgb(100 21 255 ); } 
	</style>
	<g id="Layer">
		<path id="Layer" fill-rule="evenodd" class="s0" d="m282 225.5c-18-18-28.2-42.5-28.2-68 0-25.5 10.1-50 28.1-68.1 18.1-18 42.6-28.2 68.1-28.2 25.5 0 50 10.2 68.1 28.2 18 18.1 28.1 42.6 28.1 68.1 0 25.5-10.1 50-28.1 68.1-18.1 18-42.6 28.2-68.1 28.2-25.5-0.1-50-10.3-68-28.3zm12.4-123.6c-14.8 14.7-23.1 34.7-23.1 55.6 0 20.9 8.2 40.9 23 55.7 14.8 14.8 34.8 23 55.7 23 20.9 0 40.9-8.2 55.7-23 14.8-14.8 23-34.8 23-55.7 0-20.9-8.2-40.9-23-55.7-14.8-14.8-34.8-23-55.7-23-20.9 0-40.9 8.3-55.6 23.1z"/>
		<path id="Layer" class="s0" d="m393.7 490c0 4.8-3.9 8.7-8.7 8.7h-205.8c-7.2 0-13-5.7-13-12.9v-30.8c0.1-43.2 15.3-85 43.1-118.1 27.7-33.1 66.3-55.3 108.8-62.8 42.5-7.5 86.4 0.2 123.8 21.8 3.6 2.7 4.6 7.6 2.4 11.5-2.3 3.9-7.1 5.4-11.2 3.6-33.8-19.6-73.5-26.6-112-19.8-38.5 6.8-73.4 27-98.5 56.9-25.1 30-38.9 67.8-38.8 106.9v26.2h201.2c4.8 0 8.7 4 8.7 8.8z"/>
		<path id="Layer" fill-rule="evenodd" class="s0" d="m585.7 358.9c11.8 11.2 18.4 26.7 18.4 42.9 0 16.2-6.6 31.7-18.4 42.9l-89.2 86.6c-3.5 3.2-8.8 3.2-12.3 0l-89.2-86.6c-11.8-11.2-18.4-26.7-18.4-42.9 0-16.2 6.6-31.7 18.4-42.9 11.9-10.9 27.5-16.9 43.7-16.9 16.2 0 31.8 6 43.8 16.9l7.7 7.4 7.7-7.4c11.9-10.9 27.5-16.9 43.7-16.9 16.2 0 31.8 6 43.8 16.9zm0.5 42.9c0-11.4-4.7-22.4-12.9-30.3-8.8-7.8-20.1-12.2-31.8-12.2-11.7 0-23.1 4.4-31.8 12.2l-13.6 13.3c-3.4 3.4-8.9 3.4-12.3 0l-13.6-13.3c-8.6-8.2-19.9-12.8-31.8-12.8-11.8 0-23.2 4.6-31.7 12.8-8.3 7.9-13 18.9-13 30.3 0 11.4 4.7 22.4 13 30.3l83.3 80.7 83.3-80.7c8.2-7.9 12.9-18.9 12.9-30.3z"/>
	</g>
</svg>