<svg version="1.2" xmlns="http://www.w3.org/2000/svg" viewBox="0 0 700 700" width="700" height="700">
	<title>noun-shield-1170078-svg</title>
	<style>
		.s0 { fill:  rgb(100 21 255 ); }
	</style>
	<g id="Layer">
		<path id="Layer" fill-rule="evenodd" class="s0" d="m346.7 40.4c2.2-1.2 3.4-1.9 6.4-0.2 58.6 39.2 109.9 73.3 200.4 105.7 2.2 0.8 3.8 3.1 3.7 5.5 0 132.1-53.2 256.5-203.9 368.3-1.9 1.5-4.7 1.5-6.6 0-150.7-111.8-203.9-236.2-203.9-368.3-0.1-2.4 1.5-4.7 3.7-5.5 90.6-32.5 148.5-66.5 200.2-105.5zm-192.5 114.7c0.6 84.6 23.5 165.2 81.5 241.8 13.2-42.6 25.9-83.4 42-121.8 28.8-68.5 68.6-129.5 140.7-179.7-23.8-14-45.8-28.6-68.4-43.8-50.8 37.9-108.5 71.7-195.8 103.5zm133.9 124.4c-16.7 39.5-30.1 82.6-44.3 127.7 2.3 2.9 4.6 5.6 7 8.4 57.3-108.3 114.6-208.8 260.6-274-31.3-13-57.8-26.3-82.1-40.1-73.1 49.5-112.4 109.3-141.2 178zm-29.6 145.2c2.1 2.4 4.3 4.8 6.5 7.2 30.4-36.3 59-71.6 89.4-103.2 50.2-52.3 106.5-94.6 187.2-114.8 2.8-19.4 4.1-39 4.2-58.8-6.8-2.5-13.3-5-19.7-7.6-152.4 64.5-208.6 165.5-267.6 277.2zm103.9-88.2c-30.2 31.5-58.6 67.1-89.4 104 22 22.9 47.6 45.4 77 67.5 117-87.9 172.2-181.9 189.5-281.9-75.7 20.1-128.7 60.1-177.1 110.4z"/>
	</g>
</svg>